<?xml version="1.0" standalone="no"?>
<!DOCTYPE svg PUBLIC "-//W3C//DTD SVG 20010904//EN"
 "http://www.w3.org/TR/2001/REC-SVG-20010904/DTD/svg10.dtd">
<svg version="1.0" xmlns="http://www.w3.org/2000/svg"
 width="640.000000pt" height="640.000000pt" viewBox="0 0 640.000000 640.000000"
 preserveAspectRatio="xMidYMid meet">
<metadata>
Created by potrace 1.14, written by Peter Selinger 2001-2017
</metadata>
<g transform="translate(0.000000,640.000000) scale(0.100000,-0.100000)"
fill="#000000" stroke="none">
<path d="M3120 5453 c-110 -7 -239 -26 -330 -48 -104 -26 -249 -87 -290 -124
l-25 -22 40 6 c22 3 63 8 90 11 l50 6 -110 -57 c-326 -169 -463 -315 -550
-585 -36 -112 -43 -239 -21 -426 9 -78 16 -161 16 -185 0 -40 75 -334 90 -352
4 -4 24 11 47 33 22 22 40 35 40 28 0 -7 8 -44 17 -81 18 -76 20 -101 8 -93
-16 9 -82 -14 -102 -37 -11 -11 -25 -39 -31 -61 -9 -34 -7 -51 14 -116 56
-169 154 -289 260 -314 15 -3 27 -10 27 -15 0 -27 87 -136 146 -183 78 -62
202 -140 272 -170 26 -11 49 -22 51 -24 2 -2 -7 -19 -20 -38 -15 -22 -34 -37
-54 -40 -45 -10 -226 -101 -257 -131 -55 -52 -110 -136 -129 -196 -11 -35 -28
-137 -39 -228 -11 -91 -28 -220 -40 -286 -23 -136 -24 -158 -10 -183 5 -9 14
-130 19 -268 10 -248 11 -253 44 -351 41 -117 77 -191 107 -218 29 -26 117
-31 323 -16 203 15 365 43 535 92 l133 39 82 -38 c177 -84 502 -159 572 -132
13 5 40 51 80 136 l59 129 4 141 c2 78 -2 227 -8 330 -7 104 -13 203 -13 219
-2 285 -63 626 -132 735 -53 84 -175 167 -341 231 -31 12 -43 23 -48 45 -4 16
-4 30 1 31 23 8 189 113 234 148 69 53 124 140 157 247 25 81 29 88 53 88 38
0 124 97 174 194 35 69 40 89 45 169 4 51 11 104 18 119 6 14 18 71 26 125 8
54 24 141 36 193 28 129 34 250 22 470 -13 222 -29 279 -118 415 l-19 30 37
-30 c21 -17 38 -33 38 -37 0 -5 5 -8 10 -8 36 0 -39 132 -110 193 -36 31 -85
55 -147 73 -7 2 -13 11 -13 20 0 30 -51 118 -93 163 -66 68 -177 136 -280 170
-89 30 -147 39 -147 24 0 -5 9 -21 20 -38 31 -46 24 -50 -23 -11 -101 82 -239
107 -497 89z m766 -214 c48 -33 62 -49 42 -49 -7 0 -42 21 -78 46 -50 36 -58
45 -36 40 16 -4 48 -20 72 -37z m-927 27 c-2 -2 -33 -12 -69 -21 -36 -9 -105
-32 -153 -52 -100 -39 -128 -40 -40 0 85 37 282 92 262 73z m11 -75 c-109 -36
-144 -50 -138 -56 3 -3 22 2 42 10 21 9 47 13 59 10 18 -5 19 -4 7 5 -12 9 -7
10 20 5 27 -5 32 -4 20 5 -12 9 -11 10 7 5 12 -3 41 -1 64 5 83 23 47 2 -52
-29 -55 -18 -99 -34 -97 -37 3 -2 38 7 78 21 40 14 76 23 78 20 3 -2 -1 -7 -9
-10 -65 -23 -90 -35 -69 -30 14 3 45 8 70 11 39 4 31 0 -50 -31 -52 -20 -113
-41 -135 -47 -22 -6 -49 -19 -61 -29 -11 -11 -35 -21 -52 -23 -17 -2 -63 -19
-102 -39 -38 -19 -70 -34 -70 -32 0 7 158 103 230 140 79 40 99 53 65 42 -18
-7 -19 -6 -3 6 22 18 12 30 -14 16 -10 -5 -23 -7 -28 -4 -5 3 -36 -8 -70 -25
-33 -17 -60 -28 -60 -26 0 6 112 70 160 91 25 11 48 24 52 29 4 6 10 8 13 5 3
-4 22 0 43 7 20 7 48 13 62 13 14 0 -13 -13 -60 -28z m155 -142 c-55 -23 -111
-45 -125 -49 -14 -5 -55 -20 -92 -34 -38 -13 -65 -19 -62 -14 17 27 304 134
364 136 8 1 -30 -17 -85 -39z m1250 -389 c12 20 22 9 38 -43 19 -61 23 -102 7
-77 -8 13 -10 12 -10 -2 0 -10 -4 -18 -10 -18 -5 0 -10 1 -10 3 0 1 -11 33
-25 71 -29 80 -29 82 -11 67 10 -8 16 -9 21 -1z m-351 -465 c75 -156 121 -278
147 -382 20 -80 20 -98 3 -185 l-5 -26 -57 19 c-89 31 -259 69 -308 69 -24 0
-44 5 -44 10 0 6 3 10 8 10 4 0 39 6 77 14 39 8 101 17 139 20 37 3 71 8 75
11 10 11 -50 54 -109 78 -43 17 -74 22 -140 21 -74 0 -103 -6 -220 -46 -202
-69 -225 -81 -243 -127 -9 -22 -21 -42 -27 -46 -5 -3 -10 -23 -10 -44 0 -25
-7 -44 -19 -55 -23 -21 -116 -32 -153 -17 -23 9 -28 18 -34 61 -4 28 -10 53
-14 55 -5 3 -18 25 -29 49 -23 47 -34 53 -221 117 -193 67 -235 72 -345 44
-41 -11 -33 -4 60 45 44 24 90 49 102 57 20 13 21 13 16 -6 -7 -26 7 -27 55
-2 20 10 96 37 167 60 140 44 239 88 332 147 32 20 50 28 41 17 -10 -11 -18
-23 -18 -26 0 -10 52 -9 107 3 26 5 94 14 150 20 160 15 219 46 373 187 l65
61 11 -47 c6 -25 37 -100 68 -166z m-1480 -465 c33 -11 67 -20 78 -20 10 0 18
-4 18 -8 0 -4 -46 -14 -102 -21 -90 -12 -217 -42 -270 -66 -16 -6 -18 -1 -18
44 0 51 1 52 39 70 59 26 181 27 255 1z m502 -142 c1 -2 5 -37 9 -78 l7 -75
-27 52 c-14 29 -43 67 -63 84 l-36 32 53 -6 c30 -4 55 -8 57 -9z m378 -24
c-52 -52 -64 -89 -64 -194 0 -71 3 -90 14 -90 10 0 19 20 26 58 14 63 31 102
54 121 14 12 16 8 16 -38 0 -56 17 -108 43 -130 27 -22 20 -30 -30 -33 l-48
-3 30 -14 c48 -21 255 -35 339 -22 106 15 196 46 239 82 38 31 39 32 35 94 -2
35 0 61 5 58 12 -7 8 16 -8 47 -8 15 -32 43 -52 60 -21 18 -31 30 -23 28 8 -3
41 -13 74 -23 l58 -18 -6 -56 c-8 -65 -40 -199 -62 -256 -22 -57 -40 -74 -112
-107 -55 -25 -79 -29 -190 -35 -223 -10 -347 20 -400 97 -24 34 -24 39 -18
175 9 202 13 223 45 228 73 11 75 10 35 -29z m887 20 c9 -11 14 -44 14 -93 0
-66 -4 -84 -33 -141 -56 -110 -136 -199 -158 -177 -5 5 37 271 61 383 8 39 90
59 116 28z m-1934 -36 c-52 -50 -62 -77 -52 -154 8 -66 47 -117 103 -135 20
-6 42 -15 47 -19 49 -37 485 -27 485 11 0 5 -18 9 -40 9 -39 0 -54 15 -26 26
22 9 46 79 46 137 l1 52 24 -28 c25 -28 45 -84 45 -128 0 -15 7 -32 15 -39 16
-14 21 -6 35 54 6 24 8 15 9 -39 2 -126 -47 -165 -229 -185 -295 -33 -438 0
-490 110 -19 41 -70 266 -70 309 0 12 18 23 63 38 85 29 86 29 34 -19z m1341
10 c15 -13 16 -50 0 -66 -7 -7 -24 -12 -38 -12 -33 0 -50 17 -50 52 0 44 47
58 88 26z m-950 0 c34 -34 -4 -86 -54 -74 -28 7 -42 49 -24 71 15 18 61 20 78
3z m-239 -57 c-16 -45 -5 -121 25 -181 14 -28 23 -50 21 -50 -21 0 -165 53
-175 64 -18 23 20 97 80 157 28 28 53 49 56 47 2 -3 -1 -19 -7 -37z m1422 -28
c52 -56 82 -129 58 -144 -13 -8 -163 -59 -175 -59 -3 0 8 21 23 47 22 39 28
60 28 113 0 36 -4 76 -8 88 -8 21 -7 23 10 14 10 -6 39 -32 64 -59z m-1739 29
c4 -4 21 -59 38 -122 16 -63 43 -159 58 -212 36 -121 25 -127 -61 -35 -77 81
-108 128 -141 209 -35 90 -34 129 4 161 25 22 35 24 62 16 17 -5 35 -12 40
-17z m1619 -32 c13 -10 19 -19 12 -20 -21 0 -63 19 -63 30 0 16 26 12 51 -10z
m-251 -4 c0 -19 -39 -31 -53 -17 -7 7 -3 13 14 20 34 14 39 13 39 -3z m-731
-5 c7 -5 10 -14 7 -20 -8 -13 -46 3 -46 19 0 12 20 13 39 1z m-219 -10 c0 -12
-39 -25 -48 -16 -7 7 17 25 36 25 6 0 12 -4 12 -9z m643 -22 c23 -11 25 -17
29 -108 4 -105 19 -148 68 -197 51 -53 121 -68 330 -72 172 -3 190 -1 255 20
58 19 75 30 102 66 18 24 33 42 33 40 0 -23 -48 -158 -79 -221 -62 -129 -145
-197 -342 -282 -155 -66 -242 -87 -389 -92 -116 -5 -134 -3 -243 26 -140 36
-233 74 -353 142 -109 63 -185 120 -225 170 -26 33 -99 176 -99 194 0 4 12 -2
28 -13 59 -43 137 -54 328 -50 203 4 274 20 326 73 50 51 61 82 66 192 4 99 5
102 31 112 36 13 105 13 134 0z m-433 -40 c0 -38 -51 -69 -114 -69 -28 1 -66
19 -66 32 0 3 29 8 65 10 44 3 71 10 82 21 20 19 33 22 33 6z m940 -17 c0 -5
-11 -19 -25 -32 -23 -22 -29 -23 -92 -14 -51 7 -69 13 -71 26 -3 14 2 15 36 7
26 -6 54 -4 88 5 63 17 64 17 64 8z m-827 -776 c14 -4 17 -17 17 -64 0 -72 22
-109 143 -239 47 -50 90 -101 96 -112 14 -26 27 -180 14 -166 -118 125 -124
133 -142 200 -26 94 -44 109 -139 116 -49 4 -88 1 -107 -6 -17 -7 -61 -45 -99
-86 -38 -41 -66 -65 -63 -54 63 220 80 261 160 382 l40 61 31 -13 c17 -8 39
-16 49 -19z m716 -43 c33 -91 51 -155 51 -188 0 -47 -62 -289 -71 -273 -4 7
-14 40 -23 73 -17 66 -41 104 -77 122 -33 17 -118 16 -153 -2 -15 -8 -31 -15
-34 -15 -3 0 24 30 59 68 85 87 127 150 135 200 5 34 12 42 43 55 20 8 39 15
42 16 4 1 16 -25 28 -56z m-522 -4 c62 -9 110 -10 200 -1 65 6 125 13 134 17
14 5 18 -2 22 -37 6 -55 -1 -66 -128 -203 -56 -60 -106 -119 -113 -130 -11
-20 -11 -19 -29 5 -9 14 -42 52 -73 85 -147 157 -169 196 -147 255 9 24 17 30
32 26 11 -2 57 -10 102 -17z m-437 -154 c-53 -148 -85 -284 -72 -297 4 -4 37
26 72 68 36 42 81 91 101 108 35 32 37 33 100 25 35 -5 72 -6 81 -3 22 7 52
-41 69 -109 8 -36 28 -69 72 -121 65 -77 96 -135 97 -178 0 -18 5 -28 15 -28
15 0 18 24 21 200 1 77 8 93 65 144 58 52 105 70 163 63 54 -8 80 -38 107
-130 31 -106 49 -147 65 -147 9 0 14 12 15 33 0 17 9 64 20 102 42 155 51 222
40 304 -5 42 -13 84 -16 94 -6 13 13 8 87 -22 51 -21 112 -50 136 -65 58 -37
127 -133 152 -214 30 -97 78 -363 86 -478 l7 -101 -33 -11 c-18 -7 -88 -15
-156 -18 -101 -6 -124 -5 -128 7 -2 8 -7 62 -10 121 l-5 106 39 26 c37 24 80
85 94 133 5 14 -13 2 -54 -38 -66 -64 -85 -73 -70 -34 17 44 42 258 35 302 -8
52 -25 57 -25 7 0 -50 -29 -255 -40 -279 -9 -20 -9 -20 -9 1 -1 11 -8 29 -16
40 -14 18 -14 17 -15 -16 0 -19 7 -67 16 -105 21 -97 30 -463 15 -614 -19
-185 -18 -181 -50 -181 -52 0 -227 30 -307 52 -76 22 -79 24 -82 55 -3 26 -10
34 -45 48 -53 21 -137 31 -145 18 -5 -7 -38 3 -92 25 -78 33 -95 37 -209 42
l-124 5 -18 75 c-34 140 -43 293 -25 439 19 156 20 189 5 174 -5 -5 -18 -49
-27 -96 l-18 -86 -48 144 c-26 79 -58 185 -71 235 -13 51 -26 94 -29 97 -34
34 2 -152 60 -314 26 -71 52 -147 60 -171 13 -40 12 -42 -6 -32 -20 11 -67 74
-139 189 -40 64 -66 89 -79 77 -2 -3 5 -18 17 -33 12 -15 52 -79 89 -141 45
-77 76 -119 99 -133 32 -20 33 -23 34 -87 0 -37 2 -77 5 -89 3 -17 -5 -26 -42
-44 -42 -20 -56 -21 -144 -16 -101 6 -186 34 -197 64 -3 7 4 71 16 141 11 70
27 196 36 279 30 313 94 406 345 509 30 12 56 21 57 20 1 -1 -20 -64 -47 -141z
m1488 -1062 c17 -350 16 -382 -9 -444 -37 -96 -68 -155 -94 -179 -22 -21 -30
-22 -86 -16 -34 3 -123 17 -198 31 -129 24 -144 30 -297 107 -88 44 -168 86
-177 93 -16 11 -15 16 8 69 14 31 28 74 31 96 8 46 9 47 104 21 39 -11 150
-32 248 -46 120 -18 194 -34 230 -51 75 -33 62 -7 -15 31 l-60 30 -7 74 c-3
41 -6 151 -6 245 l0 171 103 2 c56 1 122 6 147 11 25 6 50 10 56 11 7 1 14
-88 22 -256z m-1814 162 c61 -18 217 -19 268 -1 l36 13 7 -111 c3 -61 5 -169
3 -240 l-3 -129 -50 -14 c-57 -17 -88 -39 -40 -29 137 27 171 29 253 13 99
-20 144 -21 197 -2 36 13 41 13 53 -2 6 -9 12 -22 12 -28 0 -22 39 -48 77 -51
90 -8 114 -14 157 -39 25 -15 46 -28 46 -30 0 -9 -191 -60 -318 -85 -186 -36
-581 -60 -616 -36 -14 9 -37 57 -68 143 -45 124 -47 138 -57 289 -10 143 -15
354 -8 354 1 0 24 -7 51 -15z m687 -236 c41 -17 86 -35 102 -41 31 -11 32 -17
14 -73 -15 -49 -61 -98 -106 -113 -44 -15 -133 -15 -248 0 l-92 12 -3 109 c-2
65 1 112 7 115 15 10 99 19 181 21 60 1 85 -4 145 -30z m157 -254 c4 -41 -18
-70 -46 -61 -29 9 -45 42 -38 73 6 21 11 24 44 21 33 -3 37 -6 40 -33z"/>
<path d="M3166 3124 c-17 -44 82 -74 117 -36 10 10 17 27 17 37 0 17 -2 17
-20 -3 -27 -29 -73 -29 -92 0 -14 21 -15 21 -22 2z"/>
<path d="M3011 2947 c-11 -13 -21 -32 -21 -42 0 -18 1 -18 16 -3 14 14 20 14
67 -5 78 -30 367 -29 367 1 0 4 -71 7 -158 7 -133 0 -164 3 -200 19 -23 10
-39 22 -37 27 13 19 -14 16 -34 -4z"/>
</g>
</svg>
